<svg width="213" height="25" viewBox="0 0 213 25" fill="none" xmlns="http://www.w3.org/2000/svg">
<path d="M185.819 5.21244C186.87 5.21244 187.722 4.3728 187.722 3.33705C187.722 2.30129 186.87 1.46165 185.819 1.46165C184.769 1.46165 183.917 2.30129 183.917 3.33705C183.917 4.3728 184.769 5.21244 185.819 5.21244Z" fill="#3851A2"/>
<path d="M47.1313 0.0117245V2.50503H42.0595V18.744H39.5304V2.50503H34.4586V0.0117245H47.1313Z" fill="#E8505E"/>
<path d="M61.1922 18.7437H58.6632V12.5024C58.6632 11.4319 58.3003 10.5375 57.5774 9.82477C56.8544 9.11202 55.95 8.75428 54.8614 8.75428C53.7728 8.75428 52.8574 9.1093 52.1344 9.81935C51.4114 10.5294 51.0486 11.4237 51.0486 12.5024V18.7437H48.5195V0.0114727H51.0486V7.50492C52.1756 6.67021 53.4457 6.25286 54.8614 6.25286C56.6592 6.25286 58.1629 6.85179 59.3752 8.04966C60.5847 9.24752 61.1922 10.7327 61.1922 12.5051V18.7464V18.7437Z" fill="#E8505E"/>
<path d="M73.4384 7.95526C74.6479 9.15313 75.2555 10.6383 75.2555 12.4107C75.2555 14.1831 74.6479 15.6574 73.4329 16.8553C72.2179 18.0531 70.7142 18.6521 68.9246 18.6521C67.135 18.6521 65.6286 18.0531 64.4108 16.8553C63.193 15.6574 62.5827 14.1777 62.5827 12.4107C62.5827 10.6437 63.1903 9.15313 64.4053 7.95526C65.6203 6.7574 67.1268 6.15846 68.9246 6.15846C70.7224 6.15846 72.2261 6.7574 73.4384 7.95526ZM66.1976 9.73309C65.4746 10.4459 65.1118 11.3402 65.1118 12.4188C65.1118 13.4974 65.4746 14.3782 66.2031 15.091C66.9316 15.8037 67.836 16.1588 68.9246 16.1588C70.0132 16.1588 70.9176 15.8037 71.6406 15.091C72.3636 14.3782 72.7264 13.4893 72.7264 12.4188C72.7264 11.3483 72.3636 10.4567 71.6406 9.74123C70.9176 9.02576 70.0132 8.66802 68.9246 8.66802C67.836 8.66802 66.9206 9.02305 66.1976 9.73581V9.73309Z" fill="#E8505E"/>
<path d="M89.3165 6.254V12.5062C89.3165 14.2705 88.709 15.7529 87.494 16.9508C86.2789 18.1486 84.7752 18.7476 82.9857 18.7476C81.1961 18.7476 79.6814 18.1514 78.4664 16.9562C77.2513 15.761 76.6438 14.2786 76.6438 12.5062V6.254H79.1728V12.5062C79.1728 13.5767 79.5357 14.471 80.2642 15.1838C80.9927 15.8965 81.8971 16.2543 82.9857 16.2543C84.0743 16.2543 84.9787 15.8965 85.7016 15.1838C86.4246 14.471 86.7875 13.5794 86.7875 12.5062V6.254H89.3165Z" fill="#E8505E"/>
<path d="M101.564 8.0508C102.773 9.24866 103.381 10.7338 103.381 12.5062V18.7476C103.381 20.5119 102.773 21.997 101.558 23.1976C100.343 24.3981 98.8395 24.9998 97.0499 24.9998C95.7304 24.9998 94.5456 24.6502 93.49 23.9483C92.4344 23.2464 91.6592 22.2924 91.1644 21.0891L93.5972 20.3221C94.2679 21.7721 95.4198 22.4957 97.0499 22.4957C98.1357 22.4957 99.0429 22.1379 99.7659 21.4252C100.489 20.7124 100.852 19.8208 100.852 18.7476V17.5063C99.7246 18.3329 98.4574 18.7476 97.0526 18.7476C95.2548 18.7476 93.7484 18.1514 92.5333 16.9562C91.3183 15.761 90.7108 14.2786 90.7108 12.5062C90.7108 10.7338 91.3183 9.24866 92.5333 8.0508C93.7484 6.85293 95.2548 6.254 97.0526 6.254C98.8505 6.254 100.354 6.85293 101.566 8.0508H101.564ZM94.3284 9.82863C93.5999 10.5414 93.2371 11.433 93.2371 12.5062C93.2371 13.5794 93.5999 14.471 94.3284 15.1838C95.0569 15.8965 95.9613 16.2543 97.0499 16.2543C98.1385 16.2543 99.0429 15.8965 99.7659 15.1838C100.489 14.471 100.852 13.5794 100.852 12.5062C100.852 11.433 100.489 10.5414 99.7659 9.82863C99.0429 9.11587 98.1385 8.75813 97.0499 8.75813C95.9613 8.75813 95.0569 9.11587 94.3284 9.82863Z" fill="#E8505E"/>
<path d="M117.442 18.7437H114.913V12.5024C114.913 11.4319 114.55 10.5375 113.827 9.82477C113.104 9.11202 112.2 8.75428 111.111 8.75428C110.022 8.75428 109.107 9.1093 108.384 9.81935C107.661 10.5294 107.298 11.4237 107.298 12.5024V18.7437H104.769V0.0114727H107.298V7.50492C108.425 6.67021 109.695 6.25286 111.111 6.25286C112.909 6.25286 114.413 6.85179 115.625 8.04966C116.834 9.24752 117.442 10.7327 117.442 12.5051V18.7464V18.7437Z" fill="#E8505E"/>
<path d="M125.171 5.62623V8.13308H121.358V18.7458H118.829V0.0135956H121.358V5.62623H125.171Z" fill="#E8505E"/>
<path d="M152.246 0.0114727V18.7437H149.703V4.20672L144.178 13.1284H142.74V13.1175L141.781 13.1067L136.398 4.38559V18.7464H133.869V0.0141855H136.673L143.004 10.2963L149.346 0.0141855H152.246V0.0114727Z" fill="#3851A2"/>
<path d="M157.785 15.5713C158.439 16.0266 159.171 16.2543 159.979 16.2543H165.672V18.7828H159.943V18.7476C158.154 18.7394 156.655 18.1378 155.449 16.9454C154.242 15.7529 153.64 14.2732 153.64 12.5062C153.64 10.7392 154.247 9.24866 155.462 8.0508C156.677 6.85293 158.184 6.254 159.982 6.254C161.524 6.254 162.868 6.71471 164.009 7.63886C165.152 8.563 165.875 9.769 166.178 11.2623L164.594 13.7718H156.394C156.666 14.5171 157.128 15.116 157.785 15.5713ZM157.785 9.44107C157.131 9.89636 156.666 10.4953 156.394 11.2406H163.552C163.28 10.4872 162.821 9.88554 162.175 9.43566C161.529 8.98578 160.798 8.75813 159.982 8.75813C159.165 8.75813 158.442 8.98577 157.788 9.44107H157.785Z" fill="#3851A2"/>
<path d="M173.908 5.62623V8.13308H170.095V18.7458H167.566V0.0135956H170.095V5.62623H173.908Z" fill="#3851A2"/>
<path d="M184.073 6.73843C184.073 6.9444 183.889 7.294 183.521 7.78995C183.153 8.2859 182.897 8.63008 182.754 8.81708C182.402 8.70596 182.025 8.65176 181.627 8.65176C180.533 8.65176 179.623 9.0095 178.9 9.72226C178.177 10.435 177.814 11.3321 177.814 12.4107V18.6521H175.285V12.4107C175.285 10.6383 175.892 9.15313 177.108 7.95526C178.323 6.7574 179.829 6.15846 181.627 6.15846C182.457 6.15846 183.238 6.29669 183.963 6.57312C184.035 6.59751 184.071 6.65171 184.071 6.73843H184.073Z" fill="#3851A2"/>
<path d="M187.084 6.15846V18.6521H184.555V6.15846C185.352 6.54059 186.287 6.54059 187.084 6.15846Z" fill="#3851A2"/>
<path d="M197.752 14.8798L199.55 16.6522C198.288 18.0479 196.707 18.7444 194.813 18.7444C192.919 18.7444 191.509 18.1482 190.294 16.953C189.079 15.7579 188.471 14.2754 188.471 12.503C188.471 10.7306 189.079 9.24548 190.294 8.04761C191.509 6.84975 193.015 6.25081 194.813 6.25081C196.77 6.25081 198.387 6.99609 199.657 8.48394L197.845 10.2563C197.086 9.25631 196.075 8.75495 194.813 8.75495C193.727 8.75495 192.82 9.11268 192.092 9.82544C191.363 10.5382 191 11.4298 191 12.503C191 13.5762 191.363 14.4679 192.092 15.1806C192.817 15.8934 193.727 16.2511 194.813 16.2511C196.012 16.2511 196.99 15.7931 197.752 14.8798Z" fill="#3851A2"/>
<path d="M210.423 12.114C211.772 12.824 212.449 13.7834 212.449 14.9894C212.449 16.1954 211.772 17.1547 210.423 17.8648C209.312 18.4475 208.089 18.7402 206.755 18.7402C205.422 18.7402 204.199 18.4475 203.086 17.8648C201.728 17.1547 201.049 16.1981 201.049 14.9921H203.578C203.578 15.4338 204.02 15.7726 204.908 16.0084C205.499 16.1656 206.115 16.2442 206.755 16.2442C208.441 16.2442 209.284 15.8295 209.284 14.9975C209.284 14.1655 208.441 13.7617 206.755 13.7617C205.419 13.7617 204.199 13.469 203.086 12.8863C201.728 12.1681 201.049 11.2061 201.049 9.99736C201.049 8.78865 201.728 7.83197 203.086 7.12192C204.204 6.53925 205.428 6.24656 206.755 6.24656C208.083 6.24656 209.312 6.53925 210.423 7.12192C211.772 7.83197 212.449 8.78865 212.449 9.99465H209.919C209.919 9.56103 209.477 9.22768 208.589 8.98919C207.998 8.83201 207.385 8.75341 206.755 8.75341C205.062 8.75341 204.213 9.16535 204.213 9.98922C204.213 10.8131 205.059 11.2359 206.755 11.2359C208.089 11.2359 209.312 11.5286 210.423 12.1112V12.114Z" fill="#3851A2"/>
<path d="M20.95 0H1.85847V4.09226H20.95V0Z" fill="#415AA4"/>
<path d="M19.5401 4.90188H0.448547V8.99414H19.5401V4.90188Z" fill="#E8505E"/>
<path d="M19.5401 14.6558H0.448547V18.748H19.5401V14.6558Z" fill="#E8505E"/>
<path d="M20.9587 9.76024H1.8671V13.8525H20.9587V9.76024Z" fill="#415AA4"/>
</svg>
